# xmcd
#
# Track frame offsets:
#  150
#  10196
#  28852
#  45654
#  59822
#  72973
#  85530
#  105914
#  129145
#  143343
#  163452
#  177006
#
# Disc length: 2514 seconds
#
# Revision: 0
# Processed by: cddbd v1.5.1PL2 Copyright (c) Steve Scherf et al.
# Submitted via: Collectorz.com_Music_Collector 6.10
#
DISCID=9409d00c
DTITLE=Vari - Feelings 49 - I Miei Feelings
DYEAR=2004
DGENRE=Pop
TTITLE0=Mina - Nessuno
TTITLE1=Tears For Fears - Everybody Wants To Rule The World
TTITLE2=Samuele Bersani - Barcarola Albanese
TTITLE3=Francesco De Gregori - Pezzi Di Vetro
TTITLE4=Bruno Martino - Estate
TTITLE5=Elvis Costello - The Attraction - Almost Blue
TTITLE6=Alan Sorrenti - Figli Delle Stelle
TTITLE7=Leonard Cohen - Famous Blue Raincoat
TTITLE8=Sarah Vaughan - All The Things You Are
TTITLE9=Domenico Modugno - Vecchio Frac
TTITLE10=Marino BarretoJr. - La Più Bella Del Mondo
TTITLE11=Jim Bryant - Maria
EXTD=
EXTT0=
EXTT1=
EXTT2=
EXTT3=
EXTT4=
EXTT5=
EXTT6=
EXTT7=
EXTT8=
EXTT9=
EXTT10=
EXTT11=
PLAYORDER=
